<svg viewBox="0 0 330 200" xmlns="http://www.w3.org/2000/svg"><g><g><g><g><g><line x1="51.52000045776367" y1="177.95999908447266" x2="46.52000045776367" y2="177.95999908447266" style="visibility: inherit;" fill="rgb(0, 0, 0)" stroke="rgb(204, 204, 204)" stroke-width="1px"></line><line x1="51.52000045776367" y1="155.71499919891357" x2="46.52000045776367" y2="155.71499919891357" style="visibility: inherit;" fill="rgb(0, 0, 0)" stroke="rgb(204, 204, 204)" stroke-width="1px"></line><line x1="51.52000045776367" y1="133.4699993133545" x2="46.52000045776367" y2="133.4699993133545" style="visibility: inherit;" fill="rgb(0, 0, 0)" stroke="rgb(204, 204, 204)" stroke-width="1px"></line><line x1="51.52000045776367" y1="111.22499942779541" x2="46.52000045776367" y2="111.22499942779541" style="visibility: inherit;" fill="rgb(0, 0, 0)" stroke="rgb(204, 204, 204)" stroke-width="1px"></line><line x1="51.52000045776367" y1="88.97999954223633" x2="46.52000045776367" y2="88.97999954223633" style="visibility: inherit;" fill="rgb(0, 0, 0)" stroke="rgb(204, 204, 204)" stroke-width="1px"></line><line x1="51.52000045776367" y1="66.73499965667725" x2="46.52000045776367" y2="66.73499965667725" style="visibility: inherit;" fill="rgb(0, 0, 0)" stroke="rgb(204, 204, 204)" stroke-width="1px"></line><line x1="51.52000045776367" y1="44.489999771118164" x2="46.52000045776367" y2="44.489999771118164" style="visibility: inherit;" fill="rgb(0, 0, 0)" stroke="rgb(204, 204, 204)" stroke-width="1px"></line><line x1="51.52000045776367" y1="22.244999885559082" x2="46.52000045776367" y2="22.244999885559082" style="visibility: inherit;" fill="rgb(0, 0, 0)" stroke="rgb(204, 204, 204)" stroke-width="1px"></line><line x1="51.52000045776367" y1="0" x2="46.52000045776367" y2="0" style="visibility: inherit;" fill="rgb(0, 0, 0)" stroke="rgb(204, 204, 204)" stroke-width="1px"></line></g><g transform="translate(41.52000045776367, 0)"><text style="text-anchor: end; visibility: hidden; font-family: &quot;Helvetica Neue&quot;, sans-serif; font-size: 12px; font-weight: 200;" x="0" y="177.95999908447266" dx="0em" dy="0.3em" fill="rgb(50, 49, 63)" stroke="none" stroke-width="1px">-0.5</text><text style="text-anchor: end; visibility: inherit; font-family: &quot;Helvetica Neue&quot;, sans-serif; font-size: 12px; font-weight: 200;" x="0" y="155.71499919891357" dx="0em" dy="0.3em" fill="rgb(50, 49, 63)" stroke="none" stroke-width="1px">0</text><text style="text-anchor: end; visibility: hidden; font-family: &quot;Helvetica Neue&quot;, sans-serif; font-size: 12px; font-weight: 200;" x="0" y="133.4699993133545" dx="0em" dy="0.3em" fill="rgb(50, 49, 63)" stroke="none" stroke-width="1px">0.5</text><text style="text-anchor: end; visibility: inherit; font-family: &quot;Helvetica Neue&quot;, sans-serif; font-size: 12px; font-weight: 200;" x="0" y="111.22499942779541" dx="0em" dy="0.3em" fill="rgb(50, 49, 63)" stroke="none" stroke-width="1px">1</text><text style="text-anchor: end; visibility: hidden; font-family: &quot;Helvetica Neue&quot;, sans-serif; font-size: 12px; font-weight: 200;" x="0" y="88.97999954223633" dx="0em" dy="0.3em" fill="rgb(50, 49, 63)" stroke="none" stroke-width="1px">1.5</text><text style="text-anchor: end; visibility: inherit; font-family: &quot;Helvetica Neue&quot;, sans-serif; font-size: 12px; font-weight: 200;" x="0" y="66.73499965667725" dx="0em" dy="0.3em" fill="rgb(50, 49, 63)" stroke="none" stroke-width="1px">2</text><text style="text-anchor: end; visibility: hidden; font-family: &quot;Helvetica Neue&quot;, sans-serif; font-size: 12px; font-weight: 200;" x="0" y="44.489999771118164" dx="0em" dy="0.3em" fill="rgb(50, 49, 63)" stroke="none" stroke-width="1px">2.5</text><text style="text-anchor: end; visibility: inherit; font-family: &quot;Helvetica Neue&quot;, sans-serif; font-size: 12px; font-weight: 200;" x="0" y="22.244999885559082" dx="0em" dy="0.3em" fill="rgb(50, 49, 63)" stroke="none" stroke-width="1px">3</text><text style="text-anchor: end; visibility: hidden; font-family: &quot;Helvetica Neue&quot;, sans-serif; font-size: 12px; font-weight: 200;" x="0" y="0" dx="0em" dy="0.3em" fill="rgb(50, 49, 63)" stroke="none" stroke-width="1px">3.5</text></g><line x1="51.52000045776367" y1="0" x2="51.52000045776367" y2="177.95999908447266" fill="rgb(0, 0, 0)" stroke="rgb(204, 204, 204)" stroke-width="1px"></line></g></g><g transform="translate(51, 0)" clip-path="url(#clip_0)"><clipPath id="clip_0"><rect width="278" height="177"></rect></clipPath><g><g><g><line x1="0" y1="0" x2="0" y2="177.95999908447266" fill="rgb(0, 0, 0)" stroke="rgb(60, 60, 60)" stroke-width="1px" opacity="0.25"></line><line x1="25.316363594748758" y1="0" x2="25.316363594748758" y2="177.95999908447266" fill="rgb(0, 0, 0)" stroke="rgb(60, 60, 60)" stroke-width="1px" opacity="0.25"></line><line x1="50.632727189497515" y1="0" x2="50.632727189497515" y2="177.95999908447266" fill="rgb(0, 0, 0)" stroke="rgb(60, 60, 60)" stroke-width="1px" opacity="0.25"></line><line x1="75.94909078424627" y1="0" x2="75.94909078424627" y2="177.95999908447266" fill="rgb(0, 0, 0)" stroke="rgb(60, 60, 60)" stroke-width="1px" opacity="0.25"></line><line x1="101.26545437899503" y1="0" x2="101.26545437899503" y2="177.95999908447266" fill="rgb(0, 0, 0)" stroke="rgb(60, 60, 60)" stroke-width="1px" opacity="0.25"></line><line x1="126.58181797374378" y1="0" x2="126.58181797374378" y2="177.95999908447266" fill="rgb(0, 0, 0)" stroke="rgb(60, 60, 60)" stroke-width="1px" opacity="0.25"></line><line x1="151.89818156849253" y1="0" x2="151.89818156849253" y2="177.95999908447266" fill="rgb(0, 0, 0)" stroke="rgb(60, 60, 60)" stroke-width="1px" opacity="0.25"></line><line x1="177.2145451632413" y1="0" x2="177.2145451632413" y2="177.95999908447266" fill="rgb(0, 0, 0)" stroke="rgb(60, 60, 60)" stroke-width="1px" opacity="0.25"></line><line x1="202.53090875799006" y1="0" x2="202.53090875799006" y2="177.95999908447266" fill="rgb(0, 0, 0)" stroke="rgb(60, 60, 60)" stroke-width="1px" opacity="0.25"></line><line x1="227.84727235273883" y1="0" x2="227.84727235273883" y2="177.95999908447266" fill="rgb(0, 0, 0)" stroke="rgb(60, 60, 60)" stroke-width="1px" opacity="0.25"></line><line x1="253.16363594748756" y1="0" x2="253.16363594748756" y2="177.95999908447266" fill="rgb(0, 0, 0)" stroke="rgb(60, 60, 60)" stroke-width="1px" opacity="0.25"></line><line x1="278.4799995422363" y1="0" x2="278.4799995422363" y2="177.95999908447266" fill="rgb(0, 0, 0)" stroke="rgb(60, 60, 60)" stroke-width="1px" opacity="0.25"></line></g><g><line x1="0" y1="177.95999908447266" x2="278.4799995422363" y2="177.95999908447266" fill="rgb(0, 0, 0)" stroke="rgb(60, 60, 60)" stroke-width="1px" opacity="0.25"></line><line x1="0" y1="155.71499919891357" x2="278.4799995422363" y2="155.71499919891357" fill="rgb(0, 0, 0)" stroke="rgb(60, 60, 60)" stroke-width="1px" opacity="0.25"></line><line x1="0" y1="133.4699993133545" x2="278.4799995422363" y2="133.4699993133545" fill="rgb(0, 0, 0)" stroke="rgb(60, 60, 60)" stroke-width="1px" opacity="0.25"></line><line x1="0" y1="111.22499942779541" x2="278.4799995422363" y2="111.22499942779541" fill="rgb(0, 0, 0)" stroke="rgb(60, 60, 60)" stroke-width="1px" opacity="0.25"></line><line x1="0" y1="88.97999954223633" x2="278.4799995422363" y2="88.97999954223633" fill="rgb(0, 0, 0)" stroke="rgb(60, 60, 60)" stroke-width="1px" opacity="0.25"></line><line x1="0" y1="66.73499965667725" x2="278.4799995422363" y2="66.73499965667725" fill="rgb(0, 0, 0)" stroke="rgb(60, 60, 60)" stroke-width="1px" opacity="0.25"></line><line x1="0" y1="44.489999771118164" x2="278.4799995422363" y2="44.489999771118164" fill="rgb(0, 0, 0)" stroke="rgb(60, 60, 60)" stroke-width="1px" opacity="0.25"></line><line x1="0" y1="22.244999885559082" x2="278.4799995422363" y2="22.244999885559082" fill="rgb(0, 0, 0)" stroke="rgb(60, 60, 60)" stroke-width="1px" opacity="0.25"></line><line x1="0" y1="0" x2="278.4799995422363" y2="0" fill="rgb(0, 0, 0)" stroke="rgb(60, 60, 60)" stroke-width="1px" opacity="0.25"></line></g></g></g><g><g><line x1="0" y1="155.71499919891357" x2="278.4799995422363" y2="155.71499919891357" fill="rgb(0, 0, 0)" stroke="rgb(153, 153, 153)" stroke-width="1.5px"></line></g></g><g><g><line x1="25.316363594748758" y1="0" x2="25.316363594748758" y2="177.95999908447266" fill="rgb(0, 0, 0)" stroke="rgb(153, 153, 153)" stroke-width="1.5px"></line></g></g><g><g><g><g><g><path style="fill: none;" stroke="rgb(0, 153, 136)" stroke-width="2px" d="M25.316363594748758,33.85798933015258L30.37963631369851,67.03058876742016L35.44290903264826,87.34006029652616L40.50618175159801,100.73876071602145L45.56945447054776,110.87327594143764L50.632727189497515,117.76276036212269L55.69599990844727,123.72856506746118L60.75927262739702,128.10577843096317L65.82254534634677,131.57669189975314L70.88581806529652,134.95099038131474L75.94909078424627,135.81912766462355L81.01236350319601,136.65712884698084L86.07563622214577,139.3928713459269L91.13890894109552,139.01746719889417L96.20218166004528,138.68207805759806L101.26545437899503,139.7691450181267L106.32872709794478,140.02253260181675L111.39199981689454,142.5712484923169L116.45527253584427,142.59762244052746L121.51854525479403,143.11663225740273L126.58181797374378,144.01012062316516L131.64509069269354,142.43906325645304L136.7083634116433,140.75715610342172L141.77163613059304,143.3600936573645L146.83490884954278,146.2864739652919L151.89818156849253,148.333697281277L156.96145428744228,148.27279987436916L162.02472700639203,147.84414652457767L167.0879997253418,148.4776333777285L172.15127244429155,148.18851272321848L177.2145451632413,141.7203628675606L182.27781788219104,143.175110278966L187.3410906011408,146.37221680803685L192.40436332009057,148.6904421495334L197.46763603904031,150.0474458564526L202.53090875799006,151.1329050713989L207.5941814769398,152.01058041360176L212.65745419588956,152.7225842234119L217.72072691483933,153.2666417451995L222.78399963378908,153.67471919444063L227.84727235273883,153.99417604390365L232.91054507168855,154.24597194227803L237.9738177906383,154.44139030984743" fill="none"></path></g><g><path style="fill: none;" stroke="rgb(51, 187, 238)" stroke-width="2px" d="M25.316363594748758,49.31194615267577L30.37963631369851,83.45907234478739L35.44290903264826,103.15531123321762L40.50618175159801,116.15609961667124L45.56945447054776,125.17923631783577L50.632727189497515,128.6403768988504L55.69599990844727,129.88788719128442L60.75927262739702,133.9867878492436L65.82254534634677,136.60531075296137L70.88581806529652,138.91538211095474L75.94909078424627,139.3318028561918L81.01236350319601,141.2735540826254L86.07563622214577,144.65226903449351L91.13890894109552,146.24563119966228L96.20218166004528,145.7254085894387L101.26545437899503,145.12303242571485L106.32872709794478,143.31653305756464L111.39199981689454,144.37544981391474L116.45527253584427,144.23584569638197L121.51854525479403,145.24516580158308L126.58181797374378,147.60964206598206L131.64509069269354,149.58314631189427L136.7083634116433,151.1391591945223L141.77163613059304,152.2882693005978L146.83490884954278,153.14325371086426L151.89818156849253,153.75989453066873L156.96145428744228,154.19841118884833L162.02472700639203,154.5252671905624L167.0879997253418,154.76387922322374L172.15127244429155,154.93158534210977L177.2145451632413,155.07511887668696L182.27781788219104,155.19390800372554L187.3410906011408,155.28424521193537L192.40436332009057,155.35488931037943L197.46763603904031,155.4111181780868L202.53090875799006,155.45760868016066L207.5941814769398,155.49597209330574L212.65745419588956,155.52615344858378L217.72072691483933,155.54918866134125L222.78399963378908,155.57129060440548L227.84727235273883,155.58412774549254L232.91054507168855,155.53765622499608L237.9738177906383,154.65341331307002" fill="none"></path></g><g><path style="fill: none;" stroke="rgb(0, 119, 187)" stroke-width="2px" d="M25.316363594748758,34.180491932024324L30.37963631369851,62.94169596481534L35.44290903264826,82.08144565101794L40.50618175159801,96.91162905473608L45.56945447054776,107.4688903526943L50.632727189497515,115.72454078054952L55.69599990844727,121.90159909503132L60.75927262739702,127.67266100292181L65.82254534634677,132.31090402321115L70.88581806529652,135.40104428375457L75.94909078424627,134.97780119295638L81.01236350319601,136.5533608756063L86.07563622214577,137.88270140077782L91.13890894109552,140.91877381908625L96.20218166004528,144.29222779019017L101.26545437899503,144.8535462447166L106.32872709794478,141.84777882274108L111.39199981689454,141.8612392886637L116.45527253584427,141.71882032869462L121.51854525479403,143.9230812034225L126.58181797374378,144.20579790337396L131.64509069269354,146.51750214183969L136.7083634116433,148.66274684723928L141.77163613059304,150.25892250243618L146.83490884954278,151.43530369156966L151.89818156849253,152.30702512730377L156.96145428744228,152.75974313092266L162.02472700639203,153.19008332809184L167.0879997253418,153.61095063073202L172.15127244429155,153.93206512914105L177.2145451632413,153.67700841394281L182.27781788219104,152.90725271523664L187.3410906011408,152.7463739198166L192.40436332009057,153.27788369324182L197.46763603904031,153.7536746999681L202.53090875799006,154.12781339600386L207.5941814769398,154.3819353995612L212.65745419588956,154.58567719446086L217.72072691483933,154.7432241899666L222.78399963378908,154.86816511441796" fill="none"></path></g><g><path style="fill: none;" stroke="rgb(0, 119, 187)" stroke-width="2px" d="M25.316363594748758,47.1950375465467L30.37963631369851,76.96451748318742L35.44290903264826,96.18160690057692L40.50618175159801,109.96330997833543L45.56945447054776,119.5981688705017L50.632727189497515,126.14789313270524L55.69599990844727,130.26668555590598L60.75927262739702,133.51390352952512L65.82254534634677,135.19040505336199L70.88581806529652,138.44802823344344L75.94909078424627,137.3401080965718L81.01236350319601,138.59169859038462L86.07563622214577,141.7376974123217L91.13890894109552,144.93752901664203L96.20218166004528,147.87629380556012L101.26545437899503,147.31431313502355L106.32872709794478,146.25838712506956L111.39199981689454,148.25013391022205L116.45527253584427,148.3149590899215L121.51854525479403,145.70336701927312L126.58181797374378,143.219738500691L131.64509069269354,145.90915252222544L136.7083634116433,148.37482197270285L141.77163613059304,150.23310755230585L146.83490884954278,151.62440268296928L151.89818156849253,152.64548093676424L156.96145428744228,153.39746644009705L162.02472700639203,153.6787664288462L167.0879997253418,154.018793993688L172.15127244429155,154.3397134084393L177.2145451632413,154.59109251103453L182.27781788219104,154.80670147755615L187.3410906011408,154.96264547719971L192.40436332009057,155.09287422946517L197.46763603904031,155.20624470638273L202.53090875799006,155.30132191191262L207.5941814769398,155.3713021152104L212.65745419588956,155.4200221511365L217.72072691483933,155.47048880967188L222.78399963378908,155.5132480866667L227.84727235273883,155.54737018695235L232.91054507168855,155.56820042536992L237.9738177906383,155.5486801990688L243.03709050958807,155.44595922794224" fill="none"></path></g><g><path style="fill: none;" stroke="rgb(187, 187, 187)" stroke-width="2px" d="M25.316363594748758,34.145318315795976L30.37963631369851,66.12352682485263L35.44290903264826,85.98249982791096L40.50618175159801,99.69024692487874L45.56945447054776,110.2837203749591L50.632727189497515,117.7956535692466L55.69599990844727,124.4469340932304L60.75927262739702,129.73943077443818L65.82254534634677,132.30613412852813L70.88581806529652,134.90802039551863L75.94909078424627,138.01636789347495L81.01236350319601,139.51671747143428L86.07563622214577,139.26668420876283L91.13890894109552,139.23784042323427L96.20218166004528,139.55463147114648L101.26545437899503,141.43928911319682L106.32872709794478,144.2114032203362L111.39199981689454,142.70974500658494L116.45527253584427,142.6935196090338L121.51854525479403,144.76886830798105L126.58181797374378,146.50636829323307L131.64509069269354,147.1246957721464L136.7083634116433,141.97952712665025L141.77163613059304,142.01891924338653L146.83490884954278,141.81060969188047L151.89818156849253,143.78422042373234L156.96145428744228,146.49310746199967L162.02472700639203,148.77981126573684L167.0879997253418,150.59178675356594L172.15127244429155,148.9658406193395L177.2145451632413,146.6967632725079L182.27781788219104,147.77610428185048L187.3410906011408,144.64801245051368L192.40436332009057,145.72783879675208L197.46763603904031,146.81795386527307L202.53090875799006,149.0178241232695L207.5941814769398,150.7332727875527L212.65745419588956,151.97655279018744L217.72072691483933,152.86238317660917L222.78399963378908,153.50572229414757L227.84727235273883,153.94736551687384L232.91054507168855,154.28963546504417L237.9738177906383,154.54037209576765L243.03709050958807,154.7334035758323L248.10036322853782,154.87612766256012L253.16363594748756,154.99427926705133L258.22690866643734,155.07661389157596L263.2901813853871,155.15114531307557L268.35345410433683,155.2162893095601" fill="none"></path></g><g><path style="fill: none;" stroke="rgb(204, 51, 17)" stroke-width="2px" d="M25.316363594748758,47.324233760557945L30.37963631369851,81.338904340548L35.44290903264826,101.10416864773273L40.50618175159801,113.96916592291488L45.56945447054776,122.66891739642575L50.632727189497515,128.9547642280844L55.69599990844727,133.58136965791363L60.75927262739702,136.52058882081155L65.82254534634677,137.2993833087744L70.88581806529652,138.7666081622393L75.94909078424627,139.14962133511568L81.01236350319601,138.7642406292629L86.07563622214577,136.63382253550415L91.13890894109552,138.84021961278629L96.20218166004528,142.4268297129193L101.26545437899503,145.43607805393341L106.32872709794478,148.20005252507832L111.39199981689454,146.8012607383396L116.45527253584427,147.01409564549442L121.51854525479403,141.9855928361468L126.58181797374378,139.96140236377244L131.64509069269354,141.8733895860383L136.7083634116433,143.7262932296947L141.77163613059304,146.70842748647271L146.83490884954278,149.16928157050836L151.89818156849253,150.95598326186786L156.96145428744228,152.22896300088613L162.02472700639203,153.1379553255993L167.0879997253418,153.78284867889337L172.15127244429155,154.2406266721439L177.2145451632413,154.57416542652933L182.27781788219104,154.81572721772238L187.3410906011408,154.9908077340486L192.40436332009057,154.6710075606717L197.46763603904031,154.7185290102044L202.53090875799006,154.8940600689194L207.5941814769398,154.98032851659573L212.65745419588956,155.1207949234136L217.72072691483933,155.2427389190552L222.78399963378908,155.33073254475786L227.84727235273883,155.39609670376203L232.91054507168855,155.44945134972505L237.9738177906383,155.48903227989388L243.03709050958807,155.52284010633215L248.10036322853782,155.54334292762712L253.16363594748756,155.50883904979372L258.22690866643734,155.3186323948332" fill="none"></path></g><g><path style="fill: none;" stroke="rgb(255, 112, 67)" stroke-width="2px" d="M25.316363594748758,33.96696813990229L30.37963631369851,61.05636538431497L35.44290903264826,78.57799466991122L40.50618175159801,92.18884401881834L45.56945447054776,102.11284713997483L50.632727189497515,112.06785920732494L55.69599990844727,118.677943064846L60.75927262739702,124.90351694461216L65.82254534634677,129.14324578353092L70.88581806529652,132.46208880207632L75.94909078424627,134.78912994845558L81.01236350319601,134.52174368123525L86.07563622214577,136.4043789496116L91.13890894109552,137.9278860999547L96.20218166004528,140.30758415201387L101.26545437899503,139.45487821425792L106.32872709794478,139.01248661498613L111.39199981689454,140.079856519013L116.45527253584427,139.7872895472002L121.51854525479403,142.50596011127095L126.58181797374378,141.42163412388408L131.64509069269354,141.63125237589475L136.7083634116433,141.7301703614151L141.77163613059304,143.1085033959883L146.83490884954278,145.1674130015883L151.89818156849253,145.81196761366812L156.96145428744228,147.99958124868L162.02472700639203,148.22609712599828L167.0879997253418,147.14442799762568L172.15127244429155,146.6615554610337L177.2145451632413,146.0579891019023L182.27781788219104,146.23705344011944L187.3410906011408,148.6073555905855L192.40436332009057,150.48105937824414L197.46763603904031,151.6948357514686L202.53090875799006,150.0222297725898L207.5941814769398,149.60505079054454L212.65745419588956,147.47634424704816L217.72072691483933,148.9856934799146L222.78399963378908,148.02227908250762L227.84727235273883,149.89062087615946L232.91054507168855,151.39577879322536L237.9738177906383,152.47561980888798L243.03709050958807,153.24370595248513" fill="none"></path></g><g><path style="fill: none;" stroke="rgb(255, 112, 67)" stroke-width="2px" d="M25.316363594748758,45.57312652030669L30.37963631369851,75.06430929096557L35.44290903264826,94.39006063964347L40.50618175159801,108.7886491291338L45.56945447054776,118.40962811951155L50.632727189497515,124.98364608036164L55.69599990844727,127.78078542993657L60.75927262739702,129.70572139234923L65.82254534634677,133.12166714208075L70.88581806529652,137.26895257711735L75.94909078424627,141.96227495762886L81.01236350319601,144.8617008486284L86.07563622214577,144.7906181971103L91.13890894109552,141.55826311939714L96.20218166004528,141.09541252503834L101.26545437899503,144.4597147225854L106.32872709794478,145.04484693361394L111.39199981689454,143.8224674771629L116.45527253584427,146.54308720889557L121.51854525479403,147.2007744313077L126.58181797374378,147.56634771725086L131.64509069269354,149.73836072993834L136.7083634116433,150.89452527034655L141.77163613059304,151.76953206891014L146.83490884954278,152.9636361740517L151.89818156849253,153.84803162134725L156.96145428744228,154.45154794740958L162.02472700639203,154.8554636485884L167.0879997253418,155.1271875889607L172.15127244429155,152.20320099852546L177.2145451632413,146.9288375249816L182.27781788219104,146.8506838629228L187.3410906011408,145.8391084716364L192.40436332009057,147.34625934767695L197.46763603904031,149.12825519211881L202.53090875799006,151.14269198880075L207.5941814769398,152.54320959754816L212.65745419588956,153.4984870746627L217.72072691483933,154.14328596617796L222.78399963378908,154.5826220227548L227.84727235273883,154.81387180451705L232.91054507168855,154.99866269449913L237.9738177906383,155.13018891606322L243.03709050958807,155.21466966724103L248.10036322853782,155.2819221928288L253.16363594748756,155.33779884009732L258.22690866643734,155.3801027768458" fill="none"></path></g></g></g></g><g opacity="0.2"><g><g><g><path style="fill: none;" stroke="rgb(0, 153, 136)" stroke-width="2px" d="M25.316363594748758,33.85798933015258L30.37963631369851,88.62595100108138L35.44290903264826,109.16870060548081L40.50618175159801,118.8363244219455L45.56945447054776,126.38215234528559L50.632727189497515,129.1113056866053L55.69599990844727,134.00970376869543L60.75927262739702,135.86612899411836L65.82254534634677,137.8422330851928L70.88581806529652,141.11298825236094L75.94909078424627,137.41635097172167L81.01236350319601,138.2063651362775L86.07563622214577,144.46636588340323L91.13890894109552,138.31985600181827L96.20218166004528,138.05800296092048L101.26545437899503,141.79364174643598L106.32872709794478,140.49469208530712L111.39199981689454,147.32222273673972L116.45527253584427,142.64679684805492L121.51854525479403,144.08447863422919L126.58181797374378,145.6764593368138L131.64509069269354,139.50888015680164L136.7083634116433,137.62009356032604L141.77163613059304,148.21517952709323L146.83490884954278,151.74495427549843L151.89818156849253,152.1523598983882L156.96145428744228,148.15920776007485L162.02472700639203,147.04457418580995L167.0879997253418,149.65928797633515L172.15127244429155,147.64920955039088L177.2145451632413,129.6551628773966L182.27781788219104,145.8886890453472L187.3410906011408,152.33586751448559L192.40436332009057,153.01469324808227L197.46763603904031,152.5787037583857L202.53090875799006,153.157643575153L207.5941814769398,153.64773381372862L212.65745419588956,154.05070577497915L217.72072691483933,154.2814882136496L222.78399963378908,154.43591806320993L227.84727235273883,154.59006831248666L232.91054507168855,154.71565425206006L237.9738177906383,154.8059099528396" fill="none"></path></g><g><path style="fill: none;" stroke="rgb(51, 187, 238)" stroke-width="2px" d="M25.316363594748758,49.31194615267577L30.37963631369851,105.68885149585208L35.44290903264826,124.3248484867413L40.50618175159801,133.71620534561572L45.56945447054776,138.98736712239906L50.632727189497515,134.34166140137705L55.69599990844727,132.03777760527237L60.75927262739702,141.25371851671787L65.82254534634677,141.33215377160343L70.88581806529652,143.1339344612295L75.94909078424627,140.09794541525434L81.01236350319601,144.86332403535394L86.07563622214577,150.91817010471354L91.13890894109552,149.2065662245007L96.20218166004528,144.75740475212137L101.26545437899503,144.0011985213182L106.32872709794478,139.95032309506377L111.39199981689454,146.34934037392523L116.45527253584427,143.97555286069212L121.51854525479403,147.12733984745825L126.58181797374378,152.01934507706628L131.64509069269354,153.2639341118741L136.7083634116433,154.04140604082943L141.77163613059304,154.431627765083L146.83490884954278,154.738027826973L151.89818156849253,154.91010771375724L156.96145428744228,155.01637761607685L162.02472700639203,155.13495569027413L167.0879997253418,155.20896660629222L172.15127244429155,155.24441128728864L177.2145451632413,155.34285553069384L182.27781788219104,155.41548849961205L187.3410906011408,155.4527536900422L192.40436332009057,155.48666373922146L197.46763603904031,155.51600349636212L202.53090875799006,155.5443287598391L207.5941814769398,155.56753248614223L212.65745419588956,155.58245161419472L217.72072691483933,155.59215691999168L222.78399963378908,155.6125180088832L227.84727235273883,155.60807324278696L232.91054507168855,155.4509715282763L237.9738177906383,153.00400893730608" fill="none"></path></g><g><path style="fill: none;" stroke="rgb(0, 119, 187)" stroke-width="2px" d="M25.316363594748758,34.180491932024324L30.37963631369851,81.66523979016233L35.44290903264826,102.65286775349819L40.50618175159801,116.94269031563385L45.56945447054776,123.62469622908611L50.632727189497515,129.32347175168354L55.69599990844727,132.54680061159627L60.75927262739702,137.90416214479689L65.82254534634677,140.68365745916236L70.88581806529652,141.04412470795307L75.94909078424627,134.19910669130502L81.01236350319601,139.46614225074433L86.07563622214577,140.34799259521662L91.13890894109552,146.56068835542337L96.20218166004528,150.56937977256632L101.26545437899503,145.89891641600377L106.32872709794478,136.24686668338325L111.39199981689454,141.88633048347077L116.45527253584427,141.45327919995492L121.51854525479403,148.0335735906956L126.58181797374378,144.73305914165783L131.64509069269354,150.82906761008275L136.7083634116433,152.66401814152806L141.77163613059304,153.23616252781164L146.83490884954278,153.62956857942027L151.89818156849253,153.93303731326336L156.96145428744228,153.60419937005258L162.02472700639203,153.99280216391506L167.0879997253418,154.3960020980109L172.15127244429155,154.5310471289792L177.2145451632413,153.20124481130932L182.27781788219104,151.47140708118803L187.3410906011408,152.44628227969275L192.40436332009057,154.2693238610642L197.46763603904031,154.64118129947383L202.53090875799006,154.825705139127L207.5941814769398,154.85595658047617L212.65745419588956,154.96572272937647L217.72072691483933,155.0371012261274L222.78399963378908,155.10122109565927" fill="none"></path></g><g><path style="fill: none;" stroke="rgb(0, 119, 187)" stroke-width="2px" d="M25.316363594748758,47.1950375465467L30.37963631369851,96.34444892194051L35.44290903264826,116.8361538234766L40.50618175159801,128.57819363249655L45.56945447054776,134.34241981921792L50.632727189497515,136.93677632247073L55.69599990844727,137.36478518806905L60.75927262739702,139.27088810797432L65.82254534634677,138.21675227852467L70.88581806529652,144.39695871781572L75.94909078424627,135.3017255745471L81.01236350319601,140.90554903973498L86.07563622214577,147.5720213094552L91.13890894109552,150.88375623223138L96.20218166004528,153.3445982135962L101.26545437899503,146.2677096872276L106.32872709794478,144.29078684962042L111.39199981689454,151.96288106769924L116.45527253584427,148.43582608257393L121.51854525479403,140.83328587409636L126.58181797374378,138.58781881441314L131.64509069269354,150.9251854697416L136.7083634116433,152.97374365682018L141.77163613059304,153.6992437436198L146.83490884954278,154.21953943120394L151.89818156849253,154.55008671497453L156.96145428744228,154.80014723685903L162.02472700639203,154.20347874010872L167.0879997253418,154.6530536214133L172.15127244429155,154.9383315144016L177.2145451632413,155.05999617187138L182.27781788219104,155.2088825770428L187.3410906011408,155.25353210708977L192.40436332009057,155.33579359324156L197.46763603904031,155.41771790581492L202.53090875799006,155.47867217640436L207.5941814769398,155.50183822835095L212.65745419588956,155.51090106051174L217.72072691483933,155.5646257494955L222.78399963378908,155.59300822371512L227.84727235273883,155.6110191454337L232.91054507168855,155.6070556829672L237.9738177906383,155.51226854539L243.03709050958807,155.25435077075343" fill="none"></path></g><g><path style="fill: none;" stroke="rgb(187, 187, 187)" stroke-width="2px" d="M25.316363594748758,34.145318315795976L30.37963631369851,86.94134056424855L35.44290903264826,107.32694387057109L40.50618175159801,118.20523857221156L45.56945447054776,126.49494180691408L50.632727189497515,130.16951337128103L55.69599990844727,135.909384003249L60.75927262739702,139.1224848295525L65.82254534634677,136.93943476262973L70.88581806529652,139.65947250490052L75.94909078424627,143.73519274497005L81.01236350319601,142.29045581660824L86.07563622214577,138.80299203274853L91.13890894109552,139.18424019556016L96.20218166004528,140.14410017931152L101.26545437899503,144.94917706753102L106.32872709794478,149.3769284838169L111.39199981689454,139.91055521691476L116.45527253584427,142.66326724389285L121.51854525479403,148.63896604721208L126.58181797374378,149.74677253500383L131.64509069269354,148.27793992933059L136.7083634116433,132.38285241924723L141.77163613059304,142.09239473228382L146.83490884954278,141.42205678156887L151.89818156849253,147.4655743159068L156.96145428744228,151.54600251427786L162.02472700639203,153.04522785308552L167.0879997253418,153.971697728997L172.15127244429155,145.9329272132698L177.2145451632413,142.4641971456228L182.27781788219104,149.78942757197888L187.3410906011408,138.81309675716335L192.40436332009057,147.74206932921146L197.46763603904031,148.85137674182116L202.53090875799006,153.12130581405702L207.5941814769398,153.93314918652442L212.65745419588956,154.29567937824896L217.72072691483933,154.51474860361787L222.78399963378908,154.70576167249584L227.84727235273883,154.77117562561634L232.91054507168855,154.92808168622375L237.9738177906383,155.00807852609546L243.03709050958807,155.09347088904426L248.10036322853782,155.14235511206394L253.16363594748756,155.21467094100433L258.22690866643734,155.23019509622642L263.2901813853871,155.29017097299612L268.35345410433683,155.3378043286536" fill="none"></path></g><g><path style="fill: none;" stroke="rgb(204, 51, 17)" stroke-width="2px" d="M25.316363594748758,47.324233760557945L30.37963631369851,103.48245488812154L35.44290903264826,122.34789449035918L40.50618175159801,131.34585921963082L45.56945447054776,135.9821709014875L50.632727189497515,139.30898136770895L55.69599990844727,141.5546062101248L60.75927262739702,141.73152308237167L65.82254534634677,138.70522905606862L70.88581806529652,141.44599069843173L75.94909078424627,139.8542997061587L81.01236350319601,138.05177650955557L86.07563622214577,132.68291539954748L91.13890894109552,142.94035361096854L96.20218166004528,149.10061180477726L101.26545437899503,151.0403449871228L106.32872709794478,153.35041048528797L111.39199981689454,144.19382074203554L116.45527253584427,147.41092779125196L121.51854525479403,132.6084711196637L126.58181797374378,136.18632584664522L131.64509069269354,145.43944182839388L136.7083634116433,147.18229530805175L141.77163613059304,152.27080368323766L146.83490884954278,153.75943122659106L151.89818156849253,154.28869782380647L156.96145428744228,154.60345589559535L162.02472700639203,154.8335098321636L167.0879997253418,154.98578003057108L172.15127244429155,155.09453012165375L177.2145451632413,155.1963235190186L182.27781788219104,155.26631880648293L187.3410906011408,155.3173902346253L192.40436332009057,154.0744752795828L197.46763603904031,154.80717213183155L202.53090875799006,155.22148323534628L207.5941814769398,155.1412475667795L212.65745419588956,155.3828110244451L217.72072691483933,155.47020463429598L222.78399963378908,155.49486964291984L227.84727235273883,155.51802239437876L232.91054507168855,155.54897534322654L237.9738177906383,155.5628637559925L243.03709050958807,155.58590284214645L248.10036322853782,155.58158744504624L253.16363594748756,155.44447794842472L258.22690866643734,154.96383430872987" fill="none"></path></g><g><path style="fill: none;" stroke="rgb(255, 112, 67)" stroke-width="2px" d="M25.316363594748758,33.96696813990229L30.37963631369851,78.69156299042766L35.44290903264826,97.41025934769937L40.50618175159801,110.57295631863349L45.56945447054776,117.29957629416549L50.632727189497515,128.46602469455604L55.69599990844727,130.06939691266484L60.75927262739702,135.94082121829626L65.82254534634677,136.7966188492104L70.88581806529652,138.52281630628607L75.94909078424627,139.07048547486147L81.01236350319601,134.02741918962528L86.07563622214577,139.8957673949231L91.13890894109552,140.75900998418774L96.20218166004528,144.7356055428176L101.26545437899503,137.8668432137669L106.32872709794478,138.1881392418009L111.39199981689454,142.06950430290482L116.45527253584427,139.2417964194314L121.51854525479403,147.57572058528743L126.58181797374378,139.39938689578923L131.64509069269354,142.02221191208633L136.7083634116433,141.9146703836994L141.77163613059304,145.67941610566893L146.83490884954278,149.00782892846502L151.89818156849253,147.01424807941765L156.96145428744228,152.080143470912L162.02472700639203,148.64861996381939L167.0879997253418,145.1267708144418L172.15127244429155,145.76084260294786L177.2145451632413,144.9321418360284L182.27781788219104,146.57106687928598L187.3410906011408,153.0287453583616L192.40436332009057,153.97613188785073L197.46763603904031,153.95892760342028L202.53090875799006,146.90226940889002L207.5941814769398,148.8268746745303L212.65745419588956,143.50560560994217L217.72072691483933,151.8011269171722L222.78399963378908,146.22519387031076L227.84727235273883,153.3756938422864L232.91054507168855,154.2033942136448L237.9738177906383,154.48987909481627L243.03709050958807,154.67643969077332" fill="none"></path></g><g><path style="fill: none;" stroke="rgb(255, 112, 67)" stroke-width="2px" d="M25.316363594748758,45.57312652030669L30.37963631369851,94.26306927466453L35.44290903264826,115.16139751495382L40.50618175159801,128.23675710270936L45.56945447054776,133.13263861650933L50.632727189497515,135.81254650847978L55.69599990844727,132.60122106939468L60.75927262739702,133.1184355187621L65.82254534634677,139.28798300521618L70.88581806529652,144.84254577314366L75.94909078424627,150.59718102376024L81.01236350319601,150.22195081370256L86.07563622214577,144.65879385899174L91.13890894109552,135.55159773500765L96.20218166004528,140.23416362382022L101.26545437899503,150.72521541323817L106.32872709794478,146.1351755065828L111.39199981689454,141.5438716806848L116.45527253584427,151.61570137903493L121.51854525479403,148.42722559774035L126.58181797374378,148.24813490372756L131.64509069269354,153.78938773687645L136.7083634116433,153.05098228215786L141.77163613059304,153.40162390960282L146.83490884954278,155.19095903041284L151.89818156849253,155.4976844984716L156.96145428744228,155.57728874606613L162.02472700639203,155.60889254868601L167.0879997253418,155.63403921831258L172.15127244429155,146.7490239242534L177.2145451632413,137.09043681547132L182.27781788219104,146.70490177304598L187.3410906011408,143.95218908311523L192.40436332009057,150.15759037522486L197.46763603904031,152.45226310709785L202.53090875799006,154.9002792748627L207.5941814769398,155.1556359183601L212.65745419588956,155.28039412010529L217.72072691483933,155.34604826926073L222.78399963378908,155.40212849119052L227.84727235273883,155.2452288322197L232.91054507168855,155.34335858745771L237.9738177906383,155.375528655234L243.03709050958807,155.37225410416565L248.10036322853782,155.40737031283726L253.16363594748756,155.44202719890316L258.22690866643734,155.45901355836452" fill="none"></path></g></g></g></g></g></g><g transform="translate(51, 177)" clip-path="url(#clip_1)"><clipPath id="clip_1"><rect width="278" height="22"></rect></clipPath><g><g><line x1="0" y1="0" x2="0" y2="5" style="visibility: inherit;" fill="rgb(0, 0, 0)" stroke="rgb(204, 204, 204)" stroke-width="1px"></line><line x1="25.316363594748758" y1="0" x2="25.316363594748758" y2="5" style="visibility: inherit;" fill="rgb(0, 0, 0)" stroke="rgb(204, 204, 204)" stroke-width="1px"></line><line x1="50.632727189497515" y1="0" x2="50.632727189497515" y2="5" style="visibility: inherit;" fill="rgb(0, 0, 0)" stroke="rgb(204, 204, 204)" stroke-width="1px"></line><line x1="75.94909078424627" y1="0" x2="75.94909078424627" y2="5" style="visibility: inherit;" fill="rgb(0, 0, 0)" stroke="rgb(204, 204, 204)" stroke-width="1px"></line><line x1="101.26545437899503" y1="0" x2="101.26545437899503" y2="5" style="visibility: inherit;" fill="rgb(0, 0, 0)" stroke="rgb(204, 204, 204)" stroke-width="1px"></line><line x1="126.58181797374378" y1="0" x2="126.58181797374378" y2="5" style="visibility: inherit;" fill="rgb(0, 0, 0)" stroke="rgb(204, 204, 204)" stroke-width="1px"></line><line x1="151.89818156849253" y1="0" x2="151.89818156849253" y2="5" style="visibility: inherit;" fill="rgb(0, 0, 0)" stroke="rgb(204, 204, 204)" stroke-width="1px"></line><line x1="177.2145451632413" y1="0" x2="177.2145451632413" y2="5" style="visibility: inherit;" fill="rgb(0, 0, 0)" stroke="rgb(204, 204, 204)" stroke-width="1px"></line><line x1="202.53090875799006" y1="0" x2="202.53090875799006" y2="5" style="visibility: inherit;" fill="rgb(0, 0, 0)" stroke="rgb(204, 204, 204)" stroke-width="1px"></line><line x1="227.84727235273883" y1="0" x2="227.84727235273883" y2="5" style="visibility: inherit;" fill="rgb(0, 0, 0)" stroke="rgb(204, 204, 204)" stroke-width="1px"></line><line x1="253.16363594748756" y1="0" x2="253.16363594748756" y2="5" style="visibility: inherit;" fill="rgb(0, 0, 0)" stroke="rgb(204, 204, 204)" stroke-width="1px"></line><line x1="278.4799995422363" y1="0" x2="278.4799995422363" y2="5" style="visibility: inherit;" fill="rgb(0, 0, 0)" stroke="rgb(204, 204, 204)" stroke-width="1px"></line></g><g transform="translate(0, 8)"><text style="text-anchor: middle; visibility: hidden; font-family: &quot;Helvetica Neue&quot;, sans-serif; font-size: 12px; font-weight: 200;" x="0" y="0" dx="0em" dy="0.95em" fill="rgb(50, 49, 63)" stroke="none" stroke-width="1px">-5</text><text style="text-anchor: middle; visibility: inherit; font-family: &quot;Helvetica Neue&quot;, sans-serif; font-size: 12px; font-weight: 200;" x="25.316363594748758" y="0" dx="0em" dy="0.95em" fill="rgb(50, 49, 63)" stroke="none" stroke-width="1px">0</text><text style="text-anchor: middle; visibility: inherit; font-family: &quot;Helvetica Neue&quot;, sans-serif; font-size: 12px; font-weight: 200;" x="50.632727189497515" y="0" dx="0em" dy="0.95em" fill="rgb(50, 49, 63)" stroke="none" stroke-width="1px">5</text><text style="text-anchor: middle; visibility: inherit; font-family: &quot;Helvetica Neue&quot;, sans-serif; font-size: 12px; font-weight: 200;" x="75.94909078424627" y="0" dx="0em" dy="0.95em" fill="rgb(50, 49, 63)" stroke="none" stroke-width="1px">10</text><text style="text-anchor: middle; visibility: inherit; font-family: &quot;Helvetica Neue&quot;, sans-serif; font-size: 12px; font-weight: 200;" x="101.26545437899503" y="0" dx="0em" dy="0.95em" fill="rgb(50, 49, 63)" stroke="none" stroke-width="1px">15</text><text style="text-anchor: middle; visibility: inherit; font-family: &quot;Helvetica Neue&quot;, sans-serif; font-size: 12px; font-weight: 200;" x="126.58181797374378" y="0" dx="0em" dy="0.95em" fill="rgb(50, 49, 63)" stroke="none" stroke-width="1px">20</text><text style="text-anchor: middle; visibility: inherit; font-family: &quot;Helvetica Neue&quot;, sans-serif; font-size: 12px; font-weight: 200;" x="151.89818156849253" y="0" dx="0em" dy="0.95em" fill="rgb(50, 49, 63)" stroke="none" stroke-width="1px">25</text><text style="text-anchor: middle; visibility: inherit; font-family: &quot;Helvetica Neue&quot;, sans-serif; font-size: 12px; font-weight: 200;" x="177.2145451632413" y="0" dx="0em" dy="0.95em" fill="rgb(50, 49, 63)" stroke="none" stroke-width="1px">30</text><text style="text-anchor: middle; visibility: inherit; font-family: &quot;Helvetica Neue&quot;, sans-serif; font-size: 12px; font-weight: 200;" x="202.53090875799006" y="0" dx="0em" dy="0.95em" fill="rgb(50, 49, 63)" stroke="none" stroke-width="1px">35</text><text style="text-anchor: middle; visibility: inherit; font-family: &quot;Helvetica Neue&quot;, sans-serif; font-size: 12px; font-weight: 200;" x="227.84727235273883" y="0" dx="0em" dy="0.95em" fill="rgb(50, 49, 63)" stroke="none" stroke-width="1px">40</text><text style="text-anchor: middle; visibility: inherit; font-family: &quot;Helvetica Neue&quot;, sans-serif; font-size: 12px; font-weight: 200;" x="253.16363594748756" y="0" dx="0em" dy="0.95em" fill="rgb(50, 49, 63)" stroke="none" stroke-width="1px">45</text><text style="text-anchor: middle; visibility: hidden; font-family: &quot;Helvetica Neue&quot;, sans-serif; font-size: 12px; font-weight: 200;" x="278.4799995422363" y="0" dx="0em" dy="0.95em" fill="rgb(50, 49, 63)" stroke="none" stroke-width="1px">50</text></g><line x1="0" y1="0" x2="278.4799995422363" y2="0" fill="rgb(0, 0, 0)" stroke="rgb(204, 204, 204)" stroke-width="1px"></line></g></g></g></g></svg>